<?xml version="1.0" standalone="no"?>
<!DOCTYPE svg PUBLIC "-//W3C//DTD SVG 20010904//EN"
 "http://www.w3.org/TR/2001/REC-SVG-20010904/DTD/svg10.dtd">
<svg version="1.0" xmlns="http://www.w3.org/2000/svg"
 width="128.000000pt" height="128.000000pt" viewBox="0 0 128.000000 128.000000"
 preserveAspectRatio="xMidYMid meet">
<metadata>
Created by potrace 1.12, written by Peter Selinger 2001-2015
</metadata>
<g transform="translate(0.000000,128.000000) scale(0.100000,-0.100000)"
fill="#000000" stroke="none">
<path d="M0 974 c0 -275 2 -306 16 -300 9 3 53 6 98 6 l83 0 -11 56 c-13 74 3
169 40 231 22 39 27 57 25 104 -1 31 1 74 5 94 l7 37 48 -5 c27 -3 70 -16 96
-28 43 -19 68 -22 223 -23 96 -2 180 1 186 6 20 15 126 48 154 48 32 0 40 -25
40 -116 0 -41 6 -64 24 -92 42 -64 58 -131 54 -226 l-3 -86 82 0 c45 0 88 -3
97 -6 14 -6 16 25 16 300 l0 306 -640 0 -640 0 0 -306z"/>
<path d="M0 325 l0 -325 640 0 640 0 0 325 0 325 -82 -1 -83 -2 69 -8 c62 -7
97 -21 85 -34 -3 -2 -32 0 -65 5 -117 19 -128 17 -192 -49 -50 -51 -68 -62
-134 -83 l-76 -24 15 -27 c9 -19 16 -76 20 -170 3 -78 10 -148 16 -155 5 -7 7
-15 4 -18 -10 -10 -80 9 -98 27 -21 21 -24 17 -9 -12 10 -17 7 -19 -28 -19
-48 0 -69 21 -75 75 l-4 40 -1 -47 c-2 -54 -18 -68 -78 -68 -31 0 -35 2 -24
15 6 8 10 20 7 27 -4 9 -6 8 -6 -3 -1 -20 -42 -39 -83 -39 -29 0 -30 1 -15 18
13 14 17 38 17 94 l0 75 -58 6 c-83 7 -114 26 -162 103 -23 37 -54 78 -68 91
-61 56 30 37 102 -22 71 -57 87 -65 138 -65 41 0 44 2 60 41 19 44 22 41 -52
59 -61 16 -120 51 -163 99 -32 36 -42 41 -81 41 -24 0 -67 -5 -97 -10 -31 -6
-56 -7 -62 -1 -14 14 8 22 81 31 l67 7 -82 2 -83 1 0 -325z"/>
</g>
</svg>
