<?xml version="1.0" standalone="no"?>
<!DOCTYPE svg PUBLIC "-//W3C//DTD SVG 20010904//EN"
 "http://www.w3.org/TR/2001/REC-SVG-20010904/DTD/svg10.dtd">
<svg version="1.0" xmlns="http://www.w3.org/2000/svg"
 width="128.000000pt" height="128.000000pt" viewBox="0 0 128.000000 128.000000"
 preserveAspectRatio="xMidYMid meet">
<metadata>
Created by potrace 1.12, written by Peter Selinger 2001-2015
</metadata>
<g transform="translate(0.000000,128.000000) scale(0.100000,-0.100000)"
fill="#000000" stroke="none">
<path d="M0 1229 l0 -52 23 33 c12 18 38 41 57 51 l35 19 -58 0 -57 0 0 -51z"/>
<path d="M1185 1271 c26 -11 75 -60 86 -86 5 -14 8 -2 8 38 l1 57 -57 -1 c-40
0 -52 -3 -38 -8z"/>
<path d="M267 1039 c-30 -18 -49 -73 -36 -106 24 -63 75 -86 129 -58 60 31 70
116 19 158 -24 19 -84 22 -112 6z"/>
<path d="M772 770 c-23 -12 -51 -33 -61 -46 -25 -32 -31 -30 -31 11 l0 35 -75
0 -75 0 0 -275 0 -275 75 0 75 0 0 165 c0 221 14 255 109 255 93 0 101 -19
101 -245 l0 -175 86 0 87 0 -5 210 c-7 240 -17 279 -89 327 -55 36 -140 42
-197 13z"/>
<path d="M240 495 l0 -275 80 0 80 0 0 275 0 275 -80 0 -80 0 0 -275z"/>
<path d="M1261 80 c-7 -17 -29 -42 -49 -55 l-37 -25 53 0 52 0 0 55 c0 30 -1
55 -3 55 -1 0 -8 -14 -16 -30z"/>
<path d="M0 53 l0 -53 53 0 52 0 -33 20 c-18 11 -41 34 -52 52 l-20 33 0 -52z"/>
</g>
</svg>
