<?xml version="1.0" standalone="no"?>
<!DOCTYPE svg PUBLIC "-//W3C//DTD SVG 20010904//EN"
 "http://www.w3.org/TR/2001/REC-SVG-20010904/DTD/svg10.dtd">
<svg version="1.0" xmlns="http://www.w3.org/2000/svg"
 width="128.000000pt" height="128.000000pt" viewBox="0 0 128.000000 128.000000"
 preserveAspectRatio="xMidYMid meet">
<metadata>
Created by potrace 1.12, written by Peter Selinger 2001-2015
</metadata>
<g transform="translate(0.000000,128.000000) scale(0.100000,-0.100000)"
fill="#000000" stroke="none">
<path d="M0 759 l0 -521 88 4 c93 5 160 24 232 66 l44 25 -51 18 c-67 22 -107
53 -144 108 -40 61 -38 71 14 71 l42 1 -30 16 c-78 41 -145 139 -145 213 0 22
2 40 4 40 2 0 20 -7 39 -15 51 -21 55 -19 24 13 -40 42 -67 110 -67 172 0 61
15 126 31 136 6 3 30 -11 52 -33 134 -128 269 -197 430 -221 l57 -9 0 56 c0
74 34 145 93 197 54 47 102 64 183 64 58 0 152 -33 168 -59 11 -18 51 -13 116
15 33 15 63 24 67 20 9 -9 -11 -49 -47 -90 -36 -41 -33 -43 33 -20 l47 16 0
119 0 119 -640 0 -640 0 0 -521z"/>
<path d="M1219 951 l-56 -58 -6 -77 c-24 -276 -175 -508 -409 -626 -116 -58
-199 -73 -376 -68 -156 5 -192 13 -306 69 -32 16 -60 29 -62 29 -2 0 -4 -49
-4 -110 l0 -110 640 0 640 0 0 505 c0 278 -1 505 -2 504 -2 0 -28 -27 -59 -58z"/>
</g>
</svg>
